<svg width="1200" height="1200" viewBox="0 0 1200 1200" fill="none" xmlns="http://www.w3.org/2000/svg">
<rect width="1200" height="1200" fill="#2B3C55"/>
<path d="M495.97 265.495C491.333 260.145 483.665 254.617 472.965 248.91C462.621 242.847 450.495 237.675 436.585 233.395C422.675 229.115 408.23 226.975 393.25 226.975C367.926 226.975 349.201 231.612 337.075 240.885C325.305 250.158 319.42 262.998 319.42 279.405C319.42 291.532 322.808 301.162 329.585 308.295C336.361 315.072 346.705 320.957 360.615 325.95C374.525 330.587 392.001 335.402 413.045 340.395C438.725 346.458 460.838 353.77 479.385 362.33C498.288 370.533 512.733 381.59 522.72 395.5C533.063 409.41 538.235 427.778 538.235 450.605C538.235 476.642 531.993 497.685 519.51 513.735C507.026 529.785 490.085 541.555 468.685 549.045C447.641 556.178 424.458 559.745 399.135 559.745C370.245 559.745 342.246 555.287 315.14 546.37C288.033 537.453 263.78 524.792 242.38 508.385L269.665 457.025C275.728 463.088 285.358 470.043 298.555 477.89C311.751 485.38 327.088 491.978 344.565 497.685C362.398 503.035 380.945 505.71 400.205 505.71C423.745 505.71 441.935 501.608 454.775 493.405C467.615 484.845 474.035 472.718 474.035 457.025C474.035 444.185 469.755 434.02 461.195 426.53C452.991 418.683 441.043 412.263 425.35 407.27C410.013 401.92 391.466 396.392 369.71 390.685C344.743 384.265 323.878 376.953 307.115 368.75C290.351 360.547 277.69 350.203 269.13 337.72C260.926 325.237 256.825 309.008 256.825 289.035C256.825 264.068 262.888 243.025 275.015 225.905C287.141 208.428 303.548 195.41 324.235 186.85C345.278 177.933 368.818 173.475 394.855 173.475C420.535 173.475 444.253 177.577 466.01 185.78C487.766 193.983 506.848 204.148 523.255 216.275L495.97 265.495Z" fill="white"/>
<path d="M911.97 730.495C907.333 725.145 899.665 719.617 888.965 713.91C878.621 707.847 866.495 702.675 852.585 698.395C838.675 694.115 824.23 691.975 809.25 691.975C783.926 691.975 765.201 696.612 753.075 705.885C741.305 715.158 735.42 727.998 735.42 744.405C735.42 756.532 738.808 766.162 745.585 773.295C752.361 780.072 762.705 785.957 776.615 790.95C790.525 795.587 808.001 800.402 829.045 805.395C854.725 811.458 876.838 818.77 895.385 827.33C914.288 835.533 928.733 846.59 938.72 860.5C949.063 874.41 954.235 892.778 954.235 915.605C954.235 941.642 947.993 962.685 935.51 978.735C923.026 994.785 906.085 1006.55 884.685 1014.04C863.641 1021.18 840.458 1024.75 815.135 1024.75C786.245 1024.75 758.246 1020.29 731.14 1011.37C704.033 1002.45 679.78 989.792 658.38 973.385L685.665 922.025C691.728 928.088 701.358 935.043 714.555 942.89C727.751 950.38 743.088 956.978 760.565 962.685C778.398 968.035 796.945 970.71 816.205 970.71C839.745 970.71 857.935 966.608 870.775 958.405C883.615 949.845 890.035 937.718 890.035 922.025C890.035 909.185 885.755 899.02 877.195 891.53C868.991 883.683 857.043 877.263 841.35 872.27C826.013 866.92 807.466 861.392 785.71 855.685C760.743 849.265 739.878 841.953 723.115 833.75C706.351 825.547 693.69 815.203 685.13 802.72C676.926 790.237 672.825 774.008 672.825 754.035C672.825 729.068 678.888 708.025 691.015 690.905C703.141 673.428 719.548 660.41 740.235 651.85C761.278 642.933 784.818 638.475 810.855 638.475C836.535 638.475 860.253 642.577 882.01 650.78C903.766 658.983 922.848 669.148 939.255 681.275L911.97 730.495Z" fill="white"/>
<path d="M622.864 363.4C622.864 340.217 626.965 317.39 635.169 294.92C643.372 272.45 655.32 252.12 671.014 233.93C687.064 215.74 706.324 201.295 728.794 190.595C751.62 179.538 777.657 174.01 806.904 174.01C841.144 174.01 870.747 181.678 895.714 197.015C920.68 212.352 939.227 232.325 951.354 256.935L904.274 288.5C897.14 273.163 888.045 261.215 876.989 252.655C866.289 243.738 854.519 237.497 841.679 233.93C829.195 230.007 816.89 228.045 804.764 228.045C784.79 228.045 767.314 232.147 752.334 240.35C737.354 248.197 724.692 258.718 714.349 271.915C704.362 285.112 696.694 299.913 691.344 316.32C686.35 332.727 683.854 349.133 683.854 365.54C683.854 390.15 689.025 413.155 699.369 434.555C710.069 455.598 724.514 472.718 742.704 485.915C761.25 498.755 782.472 505.175 806.369 505.175C818.495 505.175 831.157 503.035 844.354 498.755C857.55 494.475 869.677 487.877 880.734 478.96C891.79 469.687 900.707 457.56 907.484 442.58L957.239 470.935C949.392 489.838 937.087 505.888 920.324 519.085C903.917 532.282 885.37 542.268 864.684 549.045C844.354 555.822 824.202 559.21 804.229 559.21C777.479 559.21 753.047 553.682 730.934 542.625C708.82 531.212 689.739 516.232 673.689 497.685C657.639 478.782 645.155 457.738 636.239 434.555C627.322 411.015 622.864 387.297 622.864 363.4Z" fill="white"/>
<path d="M227.864 828.4C227.864 805.217 231.965 782.39 240.169 759.92C248.372 737.45 260.32 717.12 276.014 698.93C292.064 680.74 311.324 666.295 333.794 655.595C356.62 644.538 382.657 639.01 411.904 639.01C446.144 639.01 475.747 646.678 500.714 662.015C525.68 677.352 544.227 697.325 556.354 721.935L509.274 753.5C502.14 738.163 493.045 726.215 481.989 717.655C471.289 708.738 459.519 702.497 446.679 698.93C434.195 695.007 421.89 693.045 409.764 693.045C389.79 693.045 372.314 697.147 357.334 705.35C342.354 713.197 329.692 723.718 319.349 736.915C309.362 750.112 301.694 764.913 296.344 781.32C291.35 797.727 288.854 814.133 288.854 830.54C288.854 855.15 294.025 878.155 304.369 899.555C315.069 920.598 329.514 937.718 347.704 950.915C366.25 963.755 387.472 970.175 411.369 970.175C423.495 970.175 436.157 968.035 449.354 963.755C462.55 959.475 474.677 952.877 485.734 943.96C496.79 934.687 505.707 922.56 512.484 907.58L562.239 935.935C554.392 954.838 542.087 970.888 525.324 984.085C508.917 997.282 490.37 1007.27 469.684 1014.04C449.354 1020.82 429.202 1024.21 409.229 1024.21C382.479 1024.21 358.047 1018.68 335.934 1007.62C313.82 996.212 294.739 981.232 278.689 962.685C262.639 943.782 250.155 922.738 241.239 899.555C232.322 876.015 227.864 852.297 227.864 828.4Z" fill="white"/>
</svg>
